<?xml version="1.0" encoding="UTF-8"?>
<svg id="Layer_1" data-name="Layer 1" xmlns="http://www.w3.org/2000/svg" viewBox="0 0 512 512">
  <polygon points="351.58 184.29 216.43 409.4 60.28 148.85 32.7 102.76 182.47 102.76 230.54 182.07 201.78 229.94 152.68 148.85 117.73 148.85 216.43 313.41 294.12 184.29 351.58 184.29"/>
  <path d="M479.3,171.64h0c0,38.13-30.91,69.04-69.04,69.04h-54.05l26.57-46.02h27.48c12.71,0,23.01-10.3,23.01-23.01h0c0-12.71-10.3-23.01-23.01-23.01h-159.58l27.52-45.88,132.06-.14c38.13,0,69.04,30.91,69.04,69.04Z" style="fill: #ff3131;"/>
</svg>